<?xml version="1.0" standalone="no"?>
<!DOCTYPE svg PUBLIC "-//W3C//DTD SVG 1.0//EN" "http://www.w3.org/TR/2001/REC-SVG-20010904/DTD/svg10.dtd">
<svg xmlns="http://www.w3.org/2000/svg" data-name="Layer 1" width="889.07556" height="459.37952" viewBox="0 0 889.07556 459.37952" xmlns:xlink="http://www.w3.org/1999/xlink" xmlns:inkscape ="http://www.inkscape.org/namespaces/inkscape" >
<desc>CopyRight:SVG Design Editor;
configurationStart;Unit=smCentimetres;Dpi=96;Division=4;Grid=True;Zoom=0.5;CanvasW=851.2804;CanvasH=435.5324;configurationEnd;</desc>
<title xmlns:inkscape ="http://www.inkscape.org/namespaces/inkscape" >
welcome_cats</title>
<g inkscape:label = "mmm Default Layer" inkscape:groupmode = "layer" ><ellipse style="fill:#E6E6E6;stroke:none; stroke-width:1" cx = "444.5378" cy = "398.1685" rx = "11.76173cm" ry = "0.3289993cm" transform = "matrix(1,0,0,1,0,0)" vector-effect="non-scaling-stroke" pen = "1,1" />
<path style="fill:#3F3D56;stroke:none; stroke-width:1" d="m836.91,483.74c-0.56,0.01 -1.12,0.02 -1.69,0.02s-1.13,-0.01 -1.69,-0.02c-29.76,-0.68 -51.33,-19.27 -45.84,-38.78l13.39,-47.59l3.38,-12.04l59.98,1.02l3.64,11.78l14.35,46.37c6.07,19.62 -15.49,38.56 -45.52,39.24z" transform = "matrix(1,0,0,1,-155.4622,-220.3102)" vector-effect="non-scaling-stroke" pen = "1,1" />
<path style="fill:Black;stroke:none; stroke-width:1" d="m868.08,398.14a66.201 66.201,0 0,1 -67,-0.76l3.38,-12.04l59.98,1.02l3.64,11.78z" opacity = "0.2" transform = "matrix(1,0,0,1,-155.4622,-220.3102)" vector-effect="non-scaling-stroke" pen = "1,1" />
<path style="fill:#3F3D56;stroke:none; stroke-width:1" d="m865.55,446.54c2.59,-9.66 11.11,-23.59 34.99,-40.38c41.65,-29.29 16.8,-51.26 15.73,-52.18c-2.26,-1.93 -1.92,-4.1 0.78,-4.84a11.22377 11.22377,0 0,1 9.03,2.1c1.35,1.12 32.46,27.68 -14.54,60.73c-42.3,29.75 -33.3,49.17 -33.2,49.36c1.13,2.08 -0.68,3.74 -4.06,3.72s-7.04,-1.72 -8.18,-3.8c-0.24,-0.44 -2.96,-5.72 -0.55,-14.71z" transform = "matrix(1,0,0,1,-155.4622,-220.3102)" vector-effect="non-scaling-stroke" pen = "1,1" />
<path style="fill:#3F3D56;stroke:none; stroke-width:1" d="m807.53,490.68a6.92019 6.92019,0 0,1 -6.92,-6.92l0,-29.99a6.92032 6.92032,0 0,1 13.84,0l0,29.99a6.92019 6.92019,0 0,1 -6.92,6.92z" transform = "matrix(1,0,0,1,-155.4622,-220.3102)" vector-effect="non-scaling-stroke" pen = "1,1" />
<path style="fill:#3F3D56;stroke:none; stroke-width:1" d="m813.6,419.48a6.92019 6.92019,0 0,1 -9.18,3.39l-27.24,-12.53a6.92033 6.92033,0 0,1 5.78,-12.57l27.24,12.53a6.92019 6.92019,0 0,1 3.39,9.18z" transform = "matrix(1,0,0,1,-155.4622,-220.3102)" vector-effect="non-scaling-stroke" pen = "1,1" />
<path style="fill:#3F3D56;stroke:none; stroke-width:1" d="m856.83,419.48a6.92019 6.92019,0 0,0 9.18,3.39l27.24,-12.53a6.92032 6.92032,0 0,0 -5.78,-12.57l-27.24,12.53a6.9202 6.9202,0 0,0 -3.39,9.18z" transform = "matrix(1,0,0,1,-155.4622,-220.3102)" vector-effect="non-scaling-stroke" pen = "1,1" />
<path style="fill:#3F3D56;stroke:none; stroke-width:1" d="m862.9,490.68a6.92018 6.92018,0 0,0 6.92,-6.92l0,-29.99a6.92032 6.92032,0 1,0 -13.84,0l0,29.99a6.92018 6.92018,0 0,0 6.92,6.92z" transform = "matrix(1,0,0,1,-155.4622,-220.3102)" vector-effect="non-scaling-stroke" pen = "1,1" />
<path style="fill:#3F3D56;stroke:none; stroke-width:1" d="m891.82,296.53a6.80558 6.80558,0 0,0 1.37,-5.41l-3.77,-22.16l-3.77,-22.16a6.913 6.913,0 0,0 -11.23,-4.16l-17.31,14.34l-10.43,8.64a65.69368 65.69368,0 0,0 -21.05,-0.32l-10.04,-8.32l-17.31,-14.34a6.913 6.913,0 0,0 -11.23,4.16l-3.77,22.16l-3.77,22.16a6.8438 6.8438,0 0,0 0.3,3.47a66.11762 66.11762,0 1,0 111.97,1.93z" transform = "matrix(1,0,0,1,-155.4622,-220.3102)" vector-effect="non-scaling-stroke" pen = "1,1" />
<path style="fill:#E6E6E6;stroke:none; stroke-width:1" d="m796.57,251.73a3.447 3.447,0 0,0 -1.2,0.22a3.38791 3.38791,0 0,0 -2.18,2.64l-4.57,26.87a3.4226 3.4226,0 0,0 4.56,3.78l25.55,-9.48a3.42226 3.42226,0 0,0 0.99,-5.84l0,0l-20.99,-17.39a3.39218 3.39218,0 0,0 -2.17,-0.79z" transform = "matrix(1,0,0,1,-155.4622,-220.3102)" vector-effect="non-scaling-stroke" pen = "1,1" />
<path style="fill:#E6E6E6;stroke:none; stroke-width:1" d="m876.17,251.73a3.39218 3.39218,0 0,0 -2.17,0.79l-20.99,17.39a3.42226 3.42226,0 0,0 0.99,5.84l25.55,9.48a3.4226 3.4226,0 0,0 4.56,-3.78l-4.57,-26.87a3.38788 3.38788,0 0,0 -2.18,-2.64a3.447 3.447,0 0,0 -1.2,-0.22z" transform = "matrix(1,0,0,1,-155.4622,-220.3102)" vector-effect="non-scaling-stroke" pen = "1,1" />
<circle style="fill:#E6E6E6;stroke:none; stroke-width:1" cx = "679.7534" cy = "119.6577" r = "0.2441337cm" transform = "matrix(1,0,0,1,0,0)" vector-effect="non-scaling-stroke" pen = "1,1" />
<ellipse style="fill:#3F3D56;stroke:none; stroke-width:1" cx = "679.7534" cy = "115.0442" rx = "0.1627558cm" ry = "0.06103329cm" transform = "matrix(1,0,0,1,0,0)" vector-effect="non-scaling-stroke" pen = "1,1" />
<path style="fill:#FF6584;stroke:none; stroke-width:1" d="m675.14,125.04l8.46,0a0 0,0 0,1 0,0l0,10.38a4.22908 4.22908,0 0,1 -4.23,4.23l0,0a4.22908 4.22908,0 0,1 -4.23,-4.23l0,-10.38a0 0,0 0,1 0,0z" transform = "matrix(1,0,0,1,0,0)" vector-effect="non-scaling-stroke" pen = "1,1" />
<path style="fill:#3F3D56;stroke:none; stroke-width:1" d="m835.73,240.69c-0.44,0.92 -0.87,1.85 -1.28,2.8a65.81817 65.81817,0 0,0 -4.65,35.34c0.87,-1.26 1.78,-2.56 2.7,-3.89a65.775 65.775,0 0,1 3.23,-34.25z" transform = "matrix(1,0,0,1,-155.4622,-220.3102)" vector-effect="non-scaling-stroke" pen = "1,1" />
<path style="fill:#3F3D56;stroke:none; stroke-width:1" d="m842.65,249.15c-0.44,0.92 -0.87,1.85 -1.28,2.8a65.81818 65.81818,0 0,0 -4.65,35.34c0.87,-1.26 1.78,-2.56 2.7,-3.89a65.775 65.775,0 0,1 3.23,-34.25z" transform = "matrix(1,0,0,1,-155.4622,-220.3102)" vector-effect="non-scaling-stroke" pen = "1,1" />
<path style="fill:#6C63FF;stroke:none; stroke-width:1" d="m863.99,415.2l-0.97,-12.4l-0.97,-12.4a3.82528 3.82528,0 0,0 -5.98,-2.85l-10.25,7.04l-7.48,5.14a5.09542 5.09542,0 0,0 -7.75,0l-7.48,-5.14l-10.25,-7.04a3.82528 3.82528,0 0,0 -5.98,2.85l-0.97,12.4l-0.97,12.4a3.82528 3.82528,0 0,0 5.46,3.75l11.22,-5.35l9.22,-4.4a5.10117 5.10117,0 0,0 7.26,0l9.22,4.4l11.22,5.35a3.82528 3.82528,0 0,0 5.46,-3.75z" transform = "matrix(1,0,0,1,-155.4622,-220.3102)" vector-effect="non-scaling-stroke" pen = "1,1" />
<circle style="fill:#E6E6E6;stroke:none; stroke-width:1" cx = "667.4506" cy = "109.6617" r = "0.06103329cm" transform = "matrix(1,0,0,1,0,0)" vector-effect="non-scaling-stroke" pen = "1,1" />
<circle style="fill:#E6E6E6;stroke:none; stroke-width:1" cx = "692.0562" cy = "109.6617" r = "0.06103329cm" transform = "matrix(1,0,0,1,0,0)" vector-effect="non-scaling-stroke" pen = "1,1" />
<path style="fill:#3F3D56;stroke:none; stroke-width:1" d="m388.89,463.36c0.56,0.01 1.12,0.02 1.69,0.02s1.13,-0.01 1.69,-0.02c29.76,-0.68 51.33,-19.27 45.84,-38.78l-13.39,-47.59l-3.38,-12.04l-59.98,1.02l-3.64,11.78l-14.35,46.37c-6.07,19.62 15.49,38.56 45.52,39.24z" transform = "matrix(1,0,0,1,-155.4622,-220.3102)" vector-effect="non-scaling-stroke" pen = "1,1" />
<path style="fill:Black;stroke:none; stroke-width:1" d="m357.72,377.76a66.201 66.201,0 0,0 67,-0.76l-3.38,-12.04l-59.98,1.02l-3.64,11.78z" opacity = "0.2" transform = "matrix(1,0,0,1,-155.4622,-220.3102)" vector-effect="non-scaling-stroke" pen = "1,1" />
<path style="fill:#3F3D56;stroke:none; stroke-width:1" d="m352.96,420.52c-6.47,-7.62 -20.13,-16.56 -48.9,-21.53c-50.18,-8.66 -37.12,-39.14 -36.54,-40.43c1.22,-2.71 -0.01,-4.53 -2.77,-4.04a11.22369 11.22369,0 0,0 -7.27,5.77c-0.74,1.59 -17.49,38.91 39.13,48.67c50.96,8.79 51.14,30.19 51.13,30.4c-0.14,2.36 2.22,3.09 5.26,1.62s5.63,-4.57 5.76,-6.93c0.03,-0.5 0.23,-6.44 -5.8,-13.53z" transform = "matrix(1,0,0,1,-155.4622,-220.3102)" vector-effect="non-scaling-stroke" pen = "1,1" />
<path style="fill:#3F3D56;stroke:none; stroke-width:1" d="m418.26,470.3a6.92018 6.92018,0 0,0 6.92,-6.92l0,-29.99a6.92033 6.92033,0 0,0 -13.84,0l0,29.99a6.92019 6.92019,0 0,0 6.92,6.92z" transform = "matrix(1,0,0,1,-155.4622,-220.3102)" vector-effect="non-scaling-stroke" pen = "1,1" />
<path style="fill:#3F3D56;stroke:none; stroke-width:1" d="m412.19,399.1a6.92019 6.92019,0 0,0 9.18,3.39l27.24,-12.53a6.92033 6.92033,0 1,0 -5.79,-12.57l-27.24,12.53a6.92019 6.92019,0 0,0 -3.39,9.18z" transform = "matrix(1,0,0,1,-155.4622,-220.3102)" vector-effect="non-scaling-stroke" pen = "1,1" />
<path style="fill:#3F3D56;stroke:none; stroke-width:1" d="m368.97,399.1a6.92019 6.92019,0 0,1 -9.18,3.39l-27.24,-12.53a6.92033 6.92033,0 1,1 5.79,-12.57l27.24,12.53a6.92019 6.92019,0 0,1 3.39,9.18z" transform = "matrix(1,0,0,1,-155.4622,-220.3102)" vector-effect="non-scaling-stroke" pen = "1,1" />
<path style="fill:#3F3D56;stroke:none; stroke-width:1" d="m362.9,470.3a6.92018 6.92018,0 0,1 -6.92,-6.92l0,-29.99a6.92033 6.92033,0 0,1 13.84,0l0,29.99a6.92019 6.92019,0 0,1 -6.92,6.92z" transform = "matrix(1,0,0,1,-155.4622,-220.3102)" vector-effect="non-scaling-stroke" pen = "1,1" />
<path style="fill:#3F3D56;stroke:none; stroke-width:1" d="m445.95,274.22a6.8438 6.8438,0 0,0 0.3,-3.47l-3.77,-22.16l-3.77,-22.16a6.913 6.913,0 0,0 -11.23,-4.16l-17.31,14.34l-10.04,8.32a65.69368 65.69368,0 0,0 -21.05,0.32l-10.43,-8.64l-17.31,-14.34a6.913 6.913,0 0,0 -11.23,4.16l-3.77,22.16l-3.77,22.16a6.80563 6.80563,0 0,0 1.37,5.41a66.13684 66.13684,0 1,0 111.97,-1.93l0,0z" transform = "matrix(1,0,0,1,-155.4622,-220.3102)" vector-effect="non-scaling-stroke" pen = "1,1" />
<path style="fill:#E6E6E6;stroke:none; stroke-width:1" d="m427.05,232.14l-20.99,17.39l0,0a3.42226 3.42226,0 0,0 0.99,5.84l25.55,9.48a3.4226 3.4226,0 0,0 4.56,-3.78l-4.57,-26.87a3.38792 3.38792,0 0,0 -2.18,-2.64a3.44677 3.44677,0 0,0 -1.2,-0.22a3.3922 3.3922,0 0,0 -2.17,0.79z" transform = "matrix(1,0,0,1,-155.4622,-220.3102)" vector-effect="non-scaling-stroke" pen = "1,1" />
<path style="fill:#E6E6E6;stroke:none; stroke-width:1" d="m348.43,231.57a3.38788 3.38788,0 0,0 -2.18,2.64l-4.57,26.87a3.4226 3.4226,0 0,0 4.56,3.78l25.55,-9.48a3.42227 3.42227,0 0,0 0.99,-5.84l-20.99,-17.39a3.39218 3.39218,0 0,0 -2.17,-0.79a3.44672 3.44672,0 0,0 -1.2,0.22z" transform = "matrix(1,0,0,1,-155.4622,-220.3102)" vector-effect="non-scaling-stroke" pen = "1,1" />
<circle style="fill:#E6E6E6;stroke:none; stroke-width:1" cx = "235.117" cy = "99.27818" r = "0.2441337cm" transform = "matrix(1,0,0,1,0,0)" vector-effect="non-scaling-stroke" pen = "1,1" />
<ellipse style="fill:#3F3D56;stroke:none; stroke-width:1" cx = "235.117" cy = "94.66464" rx = "0.1627558cm" ry = "0.06103329cm" transform = "matrix(1,0,0,1,0,0)" vector-effect="non-scaling-stroke" pen = "1,1" />
<path style="fill:#FF6584;stroke:none; stroke-width:1" d="m390.96,324.97l0,0a4.22908 4.22908,0 0,1 4.23,4.23l0,10.38a0 0,0 0,1 0,0l-8.46,0a0 0,0 0,1 0,0l0,-10.38a4.22908 4.22908,0 0,1 4.23,-4.23z" transform = "matrix(-1,8.742278E-08,-8.742278E-08,-1,-626.4653,-444.2411)" vector-effect="non-scaling-stroke" pen = "1,1" />
<path style="fill:#3F3D56;stroke:none; stroke-width:1" d="m390.07,220.31c0.44,0.92 0.87,1.85 1.28,2.8a65.81819 65.81819,0 0,1 4.65,35.34c-0.87,-1.26 -1.78,-2.56 -2.7,-3.89a65.775 65.775,0 0,0 -3.23,-34.25z" transform = "matrix(1,0,0,1,-155.4622,-220.3102)" vector-effect="non-scaling-stroke" pen = "1,1" />
<path style="fill:#3F3D56;stroke:none; stroke-width:1" d="m383.15,228.77c0.44,0.92 0.87,1.85 1.28,2.8a65.81827 65.81827,0 0,1 4.65,35.34c-0.87,-1.26 -1.78,-2.56 -2.7,-3.89a65.77493 65.77493,0 0,0 -3.23,-34.25z" transform = "matrix(1,0,0,1,-155.4622,-220.3102)" vector-effect="non-scaling-stroke" pen = "1,1" />
<path style="fill:#6C63FF;stroke:none; stroke-width:1" d="m361.81,260.26l0.97,-12.4l0.97,-12.4a3.82528 3.82528,0 0,1 5.98,-2.85l10.25,7.04l7.48,5.14a5.09539 5.09539,0 0,1 7.75,0l7.48,-5.14l10.25,-7.04a3.82528 3.82528,0 0,1 5.98,2.85l0.97,12.4l0.97,12.4a3.82528 3.82528,0 0,1 -5.46,3.75l-11.22,-5.35l-9.22,-4.4a5.10114 5.10114,0 0,1 -7.26,0l-9.22,4.4l-11.22,5.35a3.82528 3.82528,0 0,1 -5.46,-3.75z" transform = "matrix(1,0,0,1,-155.4622,-220.3102)" vector-effect="non-scaling-stroke" pen = "1,1" />
<path style="fill:#E6E6E6;stroke:none; stroke-width:1" d="m400.58,309.59c0,1.27 1.03,0 2.31,0s2.31,1.27 2.31,0a2.30678 2.30678,0 0,0 -4.61,0z" transform = "matrix(1,0,0,1,-155.4622,-220.3102)" vector-effect="non-scaling-stroke" pen = "1,1" />
<path style="fill:#E6E6E6;stroke:none; stroke-width:1" d="m380.58,309.59c0,1.27 -1.03,0 -2.31,0s-2.31,1.27 -2.31,0a2.30678 2.30678,0 0,1 4.61,0z" transform = "matrix(1,0,0,1,-155.4622,-220.3102)" vector-effect="non-scaling-stroke" pen = "1,1" />
<polygon style="fill:#3F3D56;stroke:none; stroke-width:1" points="481.05,263.451 481.05,248.788 407.736,248.788 407.736,249.705 407.736,263.451 407.736,381.67 407.736,396.333 422.399,396.333 481.05,396.333 481.05,381.67 422.399,381.67 422.399,263.451 481.05,263.451" transform = "matrix(1,0,0,1,0,0)" vector-effect="non-scaling-stroke" pen = "1,1" ShapeName="polygon" />
<path style="fill:#6C63FF;stroke:none; stroke-width:1" d="m672.25,469.1l0,147.54l73.31,0l0,-147.54l-73.31,0zm58.65,132.88l-43.99,0l0,-118.22l43.99,0l0,118.22z" transform = "matrix(1,0,0,1,-155.4622,-220.3102)" vector-effect="non-scaling-stroke" pen = "1,1" />
<polygon style="fill:#6C63FF;stroke:none; stroke-width:1" points="313.344,381.67 313.344,249.705 298.681,249.705 298.681,381.67 298.681,396.333 313.344,396.333 371.995,396.333 371.995,381.67 313.344,381.67" transform = "matrix(1,0,0,1,0,0)" vector-effect="non-scaling-stroke" pen = "1,1" ShapeName="polygon" />
<polygon style="fill:#3F3D56;stroke:none; stroke-width:1" points="265.69,263.451 265.69,248.788 192.376,248.788 192.376,249.705 192.376,263.451 192.376,314.771 192.376,329.434 192.376,381.67 192.376,396.333 207.039,396.333 265.69,396.333 265.69,381.67 207.039,381.67 207.039,329.434 265.69,329.434 265.69,314.771 207.039,314.771 207.039,263.451 265.69,263.451" transform = "matrix(1,0,0,1,0,0)" vector-effect="non-scaling-stroke" pen = "1,1" ShapeName="polygon" />
<polygon style="fill:#6C63FF;stroke:none; stroke-width:1" points="839.372,263.451 839.372,248.788 766.058,248.788 766.058,249.705 766.058,263.451 766.058,314.771 766.058,329.434 766.058,381.67 766.058,396.333 780.721,396.333 839.372,396.333 839.372,381.67 780.721,381.67 780.721,329.434 839.372,329.434 839.372,314.771 780.721,314.771 780.721,263.451 839.372,263.451" transform = "matrix(1,0,0,1,0,0)" vector-effect="non-scaling-stroke" pen = "1,1" ShapeName="polygon" />
<polygon style="fill:#3F3D56;stroke:none; stroke-width:1" points="142.889,249.705 142.889,370.89 104.228,332.23 104.14,332.319 104.058,332.237 64.535,371.76 64.535,249.247 49.872,249.247 49.872,395.875 64.535,395.875 64.535,392.496 104.147,352.884 142.889,391.627 142.889,396.333 157.552,396.333 157.552,249.705 142.889,249.705" transform = "matrix(1,0,0,1,0,0)" vector-effect="non-scaling-stroke" pen = "1,1" ShapeName="polygon" />
<polygon style="fill:#3F3D56;stroke:none; stroke-width:1" points="717.488,249.705 717.488,253.083 677.876,292.695 639.133,253.953 639.133,249.247 624.47,249.247 624.47,395.875 639.133,395.875 639.133,274.689 677.794,313.35 677.883,313.261 677.964,313.342 717.488,273.819 717.488,396.333 732.15,396.333 732.15,249.705 717.488,249.705" transform = "matrix(1,0,0,1,0,0)" vector-effect="non-scaling-stroke" pen = "1,1" ShapeName="polygon" />
<circle style="fill:#6C63FF;stroke:none; stroke-width:1" cx = "335.0756" cy = "150.3795" r = "0.238125cm" transform = "matrix(1,0,0,1,0,0)" vector-effect="non-scaling-stroke" pen = "1,1" />
<circle style="fill:#6C63FF;stroke:none; stroke-width:1" cx = "113.0756" cy = "250.3795" r = "0.238125cm" transform = "matrix(1,0,0,1,0,0)" vector-effect="non-scaling-stroke" pen = "1,1" />
<circle style="fill:#6C63FF;stroke:none; stroke-width:1" cx = "291.0756" cy = "450.3795" r = "0.238125cm" transform = "matrix(1,0,0,1,0,0)" vector-effect="non-scaling-stroke" pen = "1,1" />
<circle style="fill:#6C63FF;stroke:none; stroke-width:1" cx = "517.0756" cy = "177.3795" r = "0.238125cm" transform = "matrix(1,0,0,1,0,0)" vector-effect="non-scaling-stroke" pen = "1,1" />
<circle style="fill:#6C63FF;stroke:none; stroke-width:1" cx = "782.0756" cy = "442.3795" r = "0.238125cm" transform = "matrix(1,0,0,1,0,0)" vector-effect="non-scaling-stroke" pen = "1,1" />
<circle style="fill:#6C63FF;stroke:none; stroke-width:1" cx = "791.0756" cy = "206.3795" r = "0.238125cm" transform = "matrix(1,0,0,1,0,0)" vector-effect="non-scaling-stroke" pen = "1,1" />
<circle style="fill:#6C63FF;stroke:none; stroke-width:1" cx = "677.0756" cy = "368.3795" r = "0.238125cm" transform = "matrix(1,0,0,1,0,0)" vector-effect="non-scaling-stroke" pen = "1,1" />
</g>
</svg>
